<svg xmlns="http://www.w3.org/2000/svg" viewBox="0 0 920 520" role="img" aria-labelledby="title desc">
  <title id="title">12 自动化提醒与定期检查 - 触发现场</title>
  <desc id="desc">A field-evidence capture from a practical Codex task sequence.</desc>
  <rect width="920" height="520" rx="8" fill="#141414"/>
  <rect x="34" y="34" width="852" height="452" rx="10" fill="#191919" stroke="#333"/>
  <rect x="58" y="58" width="804" height="54" rx="8" fill="#101010" stroke="#333"/>
  <circle cx="84" cy="85" r="6" fill="#ff6b6b"/>
  <circle cx="106" cy="85" r="6" fill="#f5c542"/>
  <circle cx="128" cy="85" r="6" fill="#66d17a"/>
  <text x="160" y="90" fill="#888" font-family="Menlo, Consolas, monospace" font-size="13">automation-scheduled-checks/trigger</text>

  <text x="58" y="150" fill="#f1c86b" font-family="Arial" font-size="15" font-weight="900">TRIGGER CAPTURE</text>
  <text x="58" y="184" fill="#e0e0e0" font-family="Arial" font-size="28" font-weight="900">12 自动化提醒与定期检查</text>
  <rect x="732" y="132" width="130" height="58" rx="9" fill="#242424" stroke="#f1c86b"/>
  <text x="754" y="154" fill="#888" font-family="Arial" font-size="12" font-weight="900">STEP</text>
  <text x="754" y="180" fill="#f1c86b" font-family="Arial" font-size="27" font-weight="900">01</text>

  <rect x="58" y="206" width="804" height="0" fill="none"/>
  <text x="58" y="214" fill="#888" font-family="Arial" font-size="15">重复检查任务容易遗漏，需要转成定期提醒并保留失败处理方式。</text>

      <g>
        <rect x="58" y="228" width="804" height="42" rx="8" fill="#202020" stroke="#333"/>
        <text x="82" y="253" fill="#f1c86b" font-family="Arial" font-size="12" font-weight="900">材料</text>
        <text x="170" y="253" fill="#e0e0e0" font-family="Arial" font-size="15" font-weight="800">检查对象、频率、异常定义、标准输出、暂停条件</text>
      </g>
      <g>
        <rect x="58" y="280" width="804" height="42" rx="8" fill="#242424" stroke="#333"/>
        <text x="82" y="305" fill="#f1c86b" font-family="Arial" font-size="12" font-weight="900">动作</text>
        <text x="170" y="305" fill="#e0e0e0" font-family="Arial" font-size="15" font-weight="800">写清检查对象、时间、成功/失败条件</text>
      </g>
      <g>
        <rect x="58" y="332" width="804" height="42" rx="8" fill="#202020" stroke="#333"/>
        <text x="82" y="357" fill="#f1c86b" font-family="Arial" font-size="12" font-weight="900">信号</text>
        <text x="170" y="357" fill="#e0e0e0" font-family="Arial" font-size="15" font-weight="800">原始需求只有“每天看一下”，没有说什么时候停。</text>
      </g>
      <g>
        <rect x="58" y="384" width="804" height="42" rx="8" fill="#242424" stroke="#333"/>
        <text x="82" y="409" fill="#f1c86b" font-family="Arial" font-size="12" font-weight="900">证据</text>
        <text x="170" y="409" fill="#e0e0e0" font-family="Arial" font-size="15" font-weight="800">automation-brief.md</text>
      </g>

  <rect x="58" y="444" width="804" height="34" rx="8" fill="#101010" stroke="#333"/>
  <text x="80" y="466" fill="#666" font-family="Menlo, Consolas, monospace" font-size="12">FIRST SIGNAL: 检查对象、频率、异常定义、标准输出、暂停条件</text>
</svg>