<svg xmlns="http://www.w3.org/2000/svg" viewBox="0 0 920 520" role="img" aria-labelledby="title desc">
  <title id="title">08 登录态网页只读检查 - 修正现场</title>
  <desc id="desc">A field-evidence capture from a practical Codex task sequence.</desc>
  <rect width="920" height="520" rx="8" fill="#141414"/>
  <rect x="34" y="34" width="852" height="452" rx="10" fill="#191919" stroke="#333"/>
  <rect x="58" y="58" width="804" height="54" rx="8" fill="#101010" stroke="#333"/>
  <circle cx="84" cy="85" r="6" fill="#ff6b6b"/>
  <circle cx="106" cy="85" r="6" fill="#f5c542"/>
  <circle cx="128" cy="85" r="6" fill="#66d17a"/>
  <text x="160" y="90" fill="#888" font-family="Menlo, Consolas, monospace" font-size="13">authenticated-readonly-review/correction</text>

  <text x="58" y="150" fill="#ff922c" font-family="Arial" font-size="15" font-weight="900">CORRECTION CAPTURE</text>
  <text x="58" y="184" fill="#e0e0e0" font-family="Arial" font-size="28" font-weight="900">08 登录态网页只读检查</text>
  <rect x="732" y="132" width="130" height="58" rx="9" fill="#242424" stroke="#ff922c"/>
  <text x="754" y="154" fill="#888" font-family="Arial" font-size="12" font-weight="900">STEP</text>
  <text x="754" y="180" fill="#ff922c" font-family="Arial" font-size="27" font-weight="900">02</text>

  <rect x="58" y="206" width="804" height="0" fill="none"/>
  <text x="58" y="214" fill="#888" font-family="Arial" font-size="15">按钮标签只写继续，后果不清楚</text>

      <g>
        <rect x="58" y="228" width="804" height="42" rx="8" fill="#202020" stroke="#333"/>
        <text x="82" y="253" fill="#ff922c" font-family="Arial" font-size="12" font-weight="900">材料</text>
        <text x="170" y="253" fill="#e0e0e0" font-family="Arial" font-size="15" font-weight="800">已登录页面、检查目标、禁点清单、截图脱敏规则</text>
      </g>
      <g>
        <rect x="58" y="280" width="804" height="42" rx="8" fill="#242424" stroke="#333"/>
        <text x="82" y="305" fill="#ff922c" font-family="Arial" font-size="12" font-weight="900">动作</text>
        <text x="170" y="305" fill="#e0e0e0" font-family="Arial" font-size="15" font-weight="800">只查看详情面板和状态标签</text>
      </g>
      <g>
        <rect x="58" y="332" width="804" height="42" rx="8" fill="#202020" stroke="#333"/>
        <text x="82" y="357" fill="#ff922c" font-family="Arial" font-size="12" font-weight="900">信号</text>
        <text x="170" y="357" fill="#e0e0e0" font-family="Arial" font-size="15" font-weight="800">后果不清楚就不点，列入待确认</text>
      </g>
      <g>
        <rect x="58" y="384" width="804" height="42" rx="8" fill="#242424" stroke="#333"/>
        <text x="82" y="409" fill="#ff922c" font-family="Arial" font-size="12" font-weight="900">证据</text>
        <text x="170" y="409" fill="#e0e0e0" font-family="Arial" font-size="15" font-weight="800">readonly-evidence.csv</text>
      </g>

  <rect x="58" y="444" width="804" height="34" rx="8" fill="#101010" stroke="#333"/>
  <text x="80" y="466" fill="#666" font-family="Menlo, Consolas, monospace" font-size="12">CORRECTION: 误点高风险按钮</text>
</svg>